<?xml version="1.0" encoding="UTF-8"?>
<svg id="Layer_2" data-name="Layer 2" xmlns="http://www.w3.org/2000/svg" viewBox="0 0 377.06 377.06">
  <defs>
    <style>
      .cls-1 {
        fill: none;
      }

      .cls-1, .cls-2, .cls-3 {
        stroke-width: 0px;
      }

      .cls-2 {
        fill: #a44200;
      }

      .cls-3 {
        fill: #69140e;
      }
    </style>
  </defs>
  <g id="Layer_1-2" data-name="Layer 1">
    <g>
      <path class="cls-3" d="m0,59.43v91.62c27.39,0,49.58,22.2,49.58,49.58S27.39,250.21,0,250.21v68.05h182.92V59.43H0Zm141.51,227.3c-3.65,5.35-9.07,9.65-16.27,12.9-7.21,3.25-16.26,4.87-27.15,4.87-8.8,0-17.31-1-25.5-3-8.21-2-14.96-4.59-20.25-7.8l11.4-25.8c4.99,2.91,10.57,5.23,16.72,6.98,6.15,1.75,12.12,2.62,17.93,2.62,3.39,0,6.07-.22,8.02-.67s3.38-1.1,4.28-1.95c.9-.85,1.34-1.88,1.34-3.08,0-1.89-1.04-3.39-3.14-4.5-2.1-1.09-4.88-2.02-8.33-2.77-3.45-.75-7.23-1.55-11.32-2.4-4.11-.85-8.23-1.97-12.38-3.38-4.15-1.39-7.95-3.24-11.4-5.55-3.45-2.29-6.22-5.32-8.32-9.07-2.11-3.75-3.15-8.42-3.15-14.03,0-6.49,1.82-12.42,5.47-17.77,3.65-5.35,9.1-9.62,16.35-12.83,7.25-3.19,16.28-4.8,27.08-4.8,7.09,0,14.1.75,21,2.25,6.9,1.5,13.09,3.81,18.6,6.9l-10.65,25.65c-5.21-2.59-10.23-4.54-15.08-5.85-4.85-1.29-9.58-1.95-14.17-1.95-3.41,0-6.11.3-8.1.9-2.01.6-3.43,1.41-4.28,2.4-.85,1-1.27,2.1-1.27,3.3,0,1.8,1.05,3.23,3.15,4.28,2.1,1.05,4.87,1.93,8.32,2.62,3.45.71,7.25,1.46,11.4,2.25,4.15.81,8.27,1.91,12.38,3.3,4.1,1.41,7.87,3.25,11.32,5.55,3.45,2.31,6.23,5.31,8.33,9,2.1,3.7,3.15,8.31,3.15,13.8,0,6.4-1.83,12.28-5.48,17.63Zm-26.77-106.4h-34.8l-44.41-105h38.11l24.99,61.28,25.71-61.28h34.8l-44.4,105Z"/>
      <path class="cls-2" d="m294.29,238.58c-1.2-3.25-2.88-6-5.03-8.25-2.15-2.25-4.65-3.98-7.5-5.18-2.85-1.2-5.92-1.8-9.23-1.8s-6.37.6-9.22,1.8c-2.85,1.2-5.35,2.93-7.5,5.18-2.15,2.25-3.82,5-5.02,8.25s-1.8,6.92-1.8,11.02.6,7.78,1.8,11.03,2.87,6,5.02,8.25c2.15,2.25,4.65,3.97,7.5,5.17,2.85,1.2,5.93,1.8,9.22,1.8s6.38-.6,9.23-1.8c2.85-1.2,5.35-2.92,7.5-5.17,2.15-2.25,3.83-5,5.03-8.25s1.8-6.92,1.8-11.03-.6-7.77-1.8-11.02Zm0,0c-1.2-3.25-2.88-6-5.03-8.25-2.15-2.25-4.65-3.98-7.5-5.18-2.85-1.2-5.92-1.8-9.23-1.8s-6.37.6-9.22,1.8c-2.85,1.2-5.35,2.93-7.5,5.18-2.15,2.25-3.82,5-5.02,8.25s-1.8,6.92-1.8,11.02.6,7.78,1.8,11.03,2.87,6,5.02,8.25c2.15,2.25,4.65,3.97,7.5,5.17,2.85,1.2,5.93,1.8,9.22,1.8s6.38-.6,9.23-1.8c2.85-1.2,5.35-2.92,7.5-5.17,2.15-2.25,3.83-5,5.03-8.25s1.8-6.92,1.8-11.03-.6-7.77-1.8-11.02Zm82.77-97.07V59.43h-182.93v258.83h182.93v-77.59c-27.39,0-49.59-22.2-49.59-49.58s22.2-49.58,49.59-49.58Zm-154.48-66.18h85.36v26.7h-50.56v12.3h44.41v25.5h-44.41v13.8h52.5v26.7h-87.3v-105Zm109.21,174.27c0,7.9-1.48,15.21-4.43,21.9-2.95,6.71-7.07,12.53-12.37,17.48-5.31,4.95-11.55,8.77-18.75,11.47-7.21,2.7-15.11,4.05-23.71,4.05s-16.37-1.35-23.62-4.05-13.53-6.52-18.82-11.47c-5.31-4.95-9.43-10.77-12.38-17.48-2.95-6.69-4.42-14-4.42-21.9s1.47-15.32,4.42-21.97,7.07-12.45,12.38-17.4c5.29-4.95,11.57-8.78,18.82-11.48s15.12-4.05,23.62-4.05,16.5,1.35,23.71,4.05c7.2,2.7,13.44,6.53,18.75,11.48,5.3,4.95,9.42,10.75,12.37,17.4s4.43,13.98,4.43,21.97Zm-42.53-19.27c-2.15-2.25-4.65-3.98-7.5-5.18-2.85-1.2-5.92-1.8-9.23-1.8s-6.37.6-9.22,1.8c-2.85,1.2-5.35,2.93-7.5,5.18-2.15,2.25-3.82,5-5.02,8.25s-1.8,6.92-1.8,11.02.6,7.78,1.8,11.03,2.87,6,5.02,8.25c2.15,2.25,4.65,3.97,7.5,5.17,2.85,1.2,5.93,1.8,9.22,1.8s6.38-.6,9.23-1.8c2.85-1.2,5.35-2.92,7.5-5.17,2.15-2.25,3.83-5,5.03-8.25s1.8-6.92,1.8-11.03-.6-7.77-1.8-11.02-2.88-6-5.03-8.25Zm5.03,8.25c-1.2-3.25-2.88-6-5.03-8.25-2.15-2.25-4.65-3.98-7.5-5.18-2.85-1.2-5.92-1.8-9.23-1.8s-6.37.6-9.22,1.8c-2.85,1.2-5.35,2.93-7.5,5.18-2.15,2.25-3.82,5-5.02,8.25s-1.8,6.92-1.8,11.02.6,7.78,1.8,11.03,2.87,6,5.02,8.25c2.15,2.25,4.65,3.97,7.5,5.17,2.85,1.2,5.93,1.8,9.22,1.8s6.38-.6,9.23-1.8c2.85-1.2,5.35-2.92,7.5-5.17,2.15-2.25,3.83-5,5.03-8.25s1.8-6.92,1.8-11.03-.6-7.77-1.8-11.02Zm0,0c-1.2-3.25-2.88-6-5.03-8.25-2.15-2.25-4.65-3.98-7.5-5.18-2.85-1.2-5.92-1.8-9.23-1.8s-6.37.6-9.22,1.8c-2.85,1.2-5.35,2.93-7.5,5.18-2.15,2.25-3.82,5-5.02,8.25s-1.8,6.92-1.8,11.02.6,7.78,1.8,11.03,2.87,6,5.02,8.25c2.15,2.25,4.65,3.97,7.5,5.17,2.85,1.2,5.93,1.8,9.22,1.8s6.38-.6,9.23-1.8c2.85-1.2,5.35-2.92,7.5-5.17,2.15-2.25,3.83-5,5.03-8.25s1.8-6.92,1.8-11.03-.6-7.77-1.8-11.02Z"/>
      <rect class="cls-1" width="377.06" height="377.06"/>
    </g>
  </g>
</svg>