<?xml version="1.0" encoding="UTF-8"?>
<svg id="Layer_2" data-name="Layer 2" xmlns="http://www.w3.org/2000/svg" xmlns:xlink="http://www.w3.org/1999/xlink" viewBox="0 0 113.5 113.5">
  <defs>
    <style>
      .cls-1, .cls-2 {
        fill: #101f28;
      }

      .cls-3 {
        fill: #3a8ea5;
      }

      .cls-3, .cls-2 {
        fill-rule: evenodd;
      }

      .cls-4 {
        clip-path: url(#clippath);
      }

      .cls-5 {
        clip-rule: evenodd;
        fill: none;
      }
    </style>
    <clipPath id="clippath">
      <path class="cls-5" d="m81.11,5.49c-7.61-3.62-15.93-5.49-24.36-5.49C25.43,0,0,25.43,0,56.75s25.43,56.75,56.75,56.75,56.75-25.43,56.75-56.75c0-12.78-4.32-25.19-12.25-35.22l-16.82,13.31c4.94,6.24,7.62,13.96,7.62,21.91,0,19.48-15.82,35.3-35.3,35.3s-35.3-15.82-35.3-35.3,15.82-35.3,35.3-35.3c5.24,0,10.42,1.17,15.16,3.42l9.21-19.37Z"/>
    </clipPath>
  </defs>
  <g id="OBJECTS">
    <g>
      <path class="cls-3" d="m81.11,5.49c-7.61-3.62-15.93-5.49-24.36-5.49C25.43,0,0,25.43,0,56.75s25.43,56.75,56.75,56.75,56.75-25.43,56.75-56.75c0-12.78-4.32-25.19-12.25-35.22l-16.82,13.31c4.94,6.24,7.62,13.96,7.62,21.91,0,19.48-15.82,35.3-35.3,35.3s-35.3-15.82-35.3-35.3,15.82-35.3,35.3-35.3c5.24,0,10.42,1.17,15.16,3.42l9.21-19.37Z"/>
      <g class="cls-4">
        <path class="cls-2" d="m27.57,37.03s-22.54,28.23,3.7,74.69L-2.27,92.9l-12.48-54.55L2.09-11.6,90.67-2.64l3.56,30.3-66.65,9.37Z"/>
      </g>
      <circle class="cls-1" cx="77.15" cy="15.52" r="10.76" transform="translate(11.63 59.1) rotate(-45)"/>
      <path class="cls-2" d="m62.05,79.42s20.38-16.08,35.7-28.17c4.41-3.48,7.26-8.57,7.92-14.16.66-5.58-.93-11.2-4.41-15.61h0s-20.38,16.08-35.7,28.17c-4.41,3.48-7.26,8.57-7.92,14.16-.66,5.58.93,11.2,4.41,15.61h0Z"/>
    </g>
  </g>
</svg>